Coordinates
version=1
nRows=13
nColumns=22
inDegrees=yes

Units are S.I. units (second, meters, Newtons, ...)
If the header above contains a line with 'inDegrees', this indicates whether rotational values are in degrees (yes) or radians (no).

endheader
time	pelvis_tilt	pelvis_list	pelvis_rotation	pelvis_tx	pelvis_ty	pelvis_tz	hip_flexion_r	hip_adduction_r	hip_rotation_r	knee_angle_r	ankle_angle_r	subtalar_angle_r	hip_flexion_l	hip_adduction_l	hip_rotation_l	knee_angle_l	ankle_angle_l	subtalar_angle_l	lumbar_extension	lumbar_bending	lumbar_rotation
      1.29000000	     -2.34906741	     -3.49032235	      1.89991703	     -1.71511550	      1.00529141	      0.05022496	      2.99827576	      5.26338203	     -5.04293397	    -17.26531980	     13.96281584	     -0.94419692	     15.07546225	    -13.82726217	     -5.28529738	    -40.42410927	      5.50934750	      4.78784474	     -5.22873933	      1.74575271	     -0.55510087
      1.30000000	     -2.20435807	     -3.53030645	      1.91215505	     -1.71389766	      1.00531387	      0.05235715	      2.72007377	      5.44821475	     -4.97897449	    -17.17368870	     13.95737203	     -0.89980908	     16.05502767	    -14.06319842	     -5.27891410	    -42.18880963	      5.06236124	      4.14247347	     -5.48561691	      1.78430705	     -0.39611810
      1.31000000	     -2.07742300	     -3.53014007	      1.91054588	     -1.71258591	      1.00532330	      0.05439779	      2.47458082	      5.57714786	     -4.94861967	    -17.12659239	     14.02032313	     -0.85228954	     17.00164121	    -14.24698440	     -5.36368763	    -43.79612070	      4.75056804	      3.34768901	     -5.71718837	      1.77523315	     -0.20106399
      1.32000000	     -1.95025773	     -3.51514613	      1.90709679	     -1.71116105	      1.00538147	      0.05635077	      2.20362773	      5.68823242	     -4.88938501	    -17.04377239	     14.05481804	     -0.78738120	     17.89637543	    -14.40508089	     -5.51690096	    -45.22442162	      4.58460105	      2.65100898	     -5.94294453	      1.75250211	     -0.03078886
      1.33000000	     -1.83299956	     -3.48610883	      1.89206924	     -1.70962793	      1.00547722	      0.05821329	      1.92631033	      5.78129950	     -4.80159410	    -16.94076379	     14.06730697	     -0.71652922	     18.74214674	    -14.53365618	     -5.73855194	    -46.45623535	      4.56641353	      2.08982553	     -6.15060721	      1.71670862	      0.13414269
      1.34000000	     -1.74356026	     -3.40443689	      1.86582151	     -1.70800395	      1.00558791	      0.05996179	      1.67849515	      5.80683697	     -4.73397814	    -16.85109913	     14.11363869	     -0.64753954	     19.54675533	    -14.57599834	     -6.01265999	    -47.46729916	      4.63690391	      1.54522064	     -6.32230096	      1.61940356	      0.31142107
      1.35000000	     -1.66633738	     -3.27776744	      1.83073675	     -1.70628683	      1.00574303	      0.06158346	      1.43869949	      5.77426553	     -4.66871833	    -16.76564709	     14.16725838	     -0.58322822	     20.29429390	    -14.53806673	     -6.33487447	    -48.25098742	      4.76350588	      1.11544617	     -6.47650231	      1.47561830	      0.48431871
      1.36000000	     -1.60545839	     -3.11411093	      1.78350878	     -1.70446395	      1.00592522	      0.06310207	      1.20873659	      5.69400313	     -4.60370146	    -16.67945448	     14.23834721	     -0.52513941	     20.98951479	    -14.42566255	     -6.69399479	    -48.80828696	      4.93018859	      0.81310217	     -6.60641095	      1.29173584	      0.65331416
      1.37000000	     -1.55952748	     -2.92085946	      1.72980667	     -1.70253712	      1.00612577	      0.06450283	      0.98651390	      5.57335377	     -4.53874318	    -16.58947237	     14.30969735	     -0.47165292	     21.63592107	    -14.23928891	     -7.06895725	    -49.14245900	      5.12376505	      0.63842065	     -6.71397182	      1.07811556	      0.81239965
      1.38000000	     -1.53059727	     -2.70948796	      1.67401806	     -1.70050543	      1.00632613	      0.06578682	      0.77426729	      5.42559933	     -4.46030305	    -16.49649131	     14.36445282	     -0.42264688	     22.24273085	    -13.98480579	     -7.43270202	    -49.26259468	      5.34680444	      0.56638381	     -6.79689170	      0.85017703	      0.95243605
      1.39000000	     -1.51832337	     -2.46300909	      1.58974038	     -1.69836084	      1.00651284	      0.06701929	      0.58883997	      5.22930774	     -4.39512728	    -16.43663198	     14.48303517	     -0.33850956	     22.79899551	    -13.67004568	     -7.84354524	    -49.16915941	      5.49008158	      0.57739031	     -6.85642054	      0.57802346	      1.12531535
      1.40000000	     -1.51025030	     -2.21180082	      1.51519918	     -1.69612042	      1.00667774	      0.06812789	      0.40258478	      5.01970905	     -4.33287580	    -16.37844234	     14.59811734	     -0.24134355	     23.31594432	    -13.29911486	     -8.20847614	    -48.88548689	      5.65081786	      0.70853388	     -6.91087639	      0.30770921	      1.27276512
      1.41000000	     -1.50817085	     -1.96255547	      1.44904565	     -1.69379838	      1.00680019	      0.06913631	      0.22126198	      4.80512541	     -4.28296285	    -16.32789146	     14.73031375	     -0.12521818	     23.80120293	    -12.88668135	     -8.52684287	    -48.42479499	      5.79242688	      0.96106459	     -6.96192726	      0.04288175	      1.40164347
